<?xml version="1.0" encoding="UTF-8" standalone="no" ?>
<!DOCTYPE svg PUBLIC "-//W3C//DTD SVG 1.1//EN" "http://www.w3.org/Graphics/SVG/1.1/DTD/svg11.dtd">
<svg xmlns="http://www.w3.org/2000/svg" xmlns:xlink="http://www.w3.org/1999/xlink" version="1.1" width="1280" height="1024" viewBox="0 0 1280 1024" xml:space="preserve">
<desc>Created with Fabric.js 4.4.0</desc>
<defs>
</defs>
<g transform="matrix(1 0 0 1 640 512)" id="background-logo"  >
<rect style="stroke: none; stroke-width: 0; stroke-dasharray: none; stroke-linecap: butt; stroke-dashoffset: 0; stroke-linejoin: miter; stroke-miterlimit: 4; fill: rgb(255,255,255); fill-opacity: 0; fill-rule: nonzero; opacity: 1;"  paint-order="stroke"  x="-640" y="-512" rx="0" ry="0" width="1280" height="1024" />
</g>
<g transform="matrix(1.146883492028893 0 0 1.146883492028893 346.93701466781704 385.4674373102267)" id="logo-logo"  >
<g style=""  paint-order="stroke"   >
		<g transform="matrix(0.7959717512834101 0 0 0.7959717512834102 -0.00001139222865731426 58.60114306299445)"  >
<path style="stroke: none; stroke-width: 1; stroke-dasharray: none; stroke-linecap: butt; stroke-dashoffset: 0; stroke-linejoin: miter; stroke-miterlimit: 4; fill: rgb(52,68,100); fill-rule: nonzero; opacity: 1;"  paint-order="stroke"  transform=" translate(-509.08816525, -584.0502319499999)" d="M 580.9771118 530.3223267 C 556.7811279 530.3223267 536.6935425 547.8571167 532.6936645 570.9094239 L 485.482666 570.9094239 C 481.4827881 547.8571168 461.3952026 530.3223267 437.1991577 530.3223267 C 410.12548830000003 530.3223267 388.1779175 552.2698975 388.1779175 579.343628 C 388.1779175 606.4172973999999 410.1254883 628.3648681999999 437.1991577 628.3648681999999 C 450.6157226 628.3648681999999 462.7686767 622.9701537999999 471.6204223 614.2376708999999 C 470.95971669999994 616.8762816999999 470.1559448 621.9929199 472.1293945 627.8206786999999 C 473.88061519999997 632.9920653999999 476.9857788 636.2601318 478.6400146 637.7781372 C 484.9947509 620.4932250999999 491.34948729999996 603.208313 497.7041625 585.9234008999999 L 520.1360473 585.9234008999999 C 526.4907226 603.208313 532.8454588999999 620.4932250999999 539.2001951999999 637.7781372 C 540.854431 636.2601318 543.9595946 632.9920654 545.7108152999999 627.8206786999999 C 547.8054807999999 621.6349486999999 546.7719114999999 616.253479 546.1010130999999 613.7836914 C 554.9887693999999 622.7832642 567.3293455999999 628.3648681999999 580.9771116999999 628.3648681999999 C 608.0508421999999 628.3648681999999 629.9984129999999 606.4172973999999 629.9984129999999 579.343628 C 629.9984131 552.2698975 608.0508423 530.3223267 580.9771118 530.3223267 z M 437.1990967 613.3651733 C 418.4398194 613.3651733 403.1781006 598.1034545 403.1781006 579.3436889000001 C 403.1781006 560.5839233000002 418.4398194 545.3222045000001 437.1990967 545.3222045000001 C 455.958374 545.3222045000001 471.2205811 560.5839233000002 471.2205811 579.3436889000001 C 471.2205811 598.1034545 455.958374 613.3651733 437.1990967 613.3651733 z M 580.9770508 613.3651733 C 562.2177735 613.3651733 546.9560547 598.1034545 546.9560547 579.3436889000001 C 546.9560547 560.5839233000002 562.2177735 545.3222045000001 580.9770508 545.3222045000001 C 599.7363281 545.3222045000001 614.9985352 560.5839233000002 614.9985352 579.3436889000001 C 614.9985352 598.1034545 599.7363281 613.3651733 580.9770508 613.3651733 z" stroke-linecap="round" />
</g>
		<g transform="matrix(0.7959717512834101 0 0 0.7959717512834102 0 -45.72936841254739)"  >
<path style="stroke: none; stroke-width: 1; stroke-dasharray: none; stroke-linecap: butt; stroke-dashoffset: 0; stroke-linejoin: miter; stroke-miterlimit: 4; fill: rgb(0,116,86); fill-rule: nonzero; opacity: 1;"  paint-order="stroke"  transform=" translate(-509.0881795623529, -452.9770986292241)" d="M 435.2262573 511.690918 L 435.2262573 503.2905884 C 435.2262573 503.14721679999997 435.1956177 503.0124512 435.184082 502.8720703 L 449.1831054 494.78973390000004 C 451.70648189999997 496.89257810000004 454.9503783 498.15991210000004 458.4918823 498.15991210000004 L 474.3137207 498.15991210000004 C 477.355957 498.15991210000004 480.1779785 497.2236328 482.51336669999995 495.62744140000007 L 494.78326419999996 505.00537110000005 C 494.4405518 505.8369751000001 494.24890139999997 506.74682620000004 494.24890139999997 507.70208740000004 L 494.24890139999997 514.6504517000001 C 494.24890139999997 514.7708130000001 494.25204469999994 514.8904419 494.25811769999996 515.0092774000001 C 494.26440429999997 515.1325684000001 494.27355959999994 515.2507325000001 494.2849121 515.3634644000001 C 488.5279236 518.0166016000001 478.38854979999996 521.7930909000002 465.2533874 522.1063843000001 C 450.5943603 522.4560547000001 439.2905883 518.3233643000001 433.3291015 515.6442261000001 C 434.4778442 514.7033081 435.2262573 513.291687 435.2262573 511.690918 z M 621.508728 461.8510742 C 609.0858764000001 451.8800964 594.8623047 451.5237427 589.8491211 451.6383056 C 595.6646729 428.00439450000005 586.5012207000001 403.6707458 567.7214966 391.38293450000003 C 545.0759278 376.56570430000005 512.3079834 381.78988640000006 493.508728 405.340393 C 480.0120849 393.1622924 459.9475708 392.4108886 446.4383545 402.9594726 C 434.505249 412.27740470000003 429.7628784 428.79162590000004 434.9555664 443.8084716 C 423.3656006 440.31188960000003 410.888916 444.13977040000003 403.6364136 453.340393 C 397.2189942 461.4816284 395.810669 472.6641235 399.8991699 482.45635980000003 C 398.1191406 482.9387206 387.4185791 486.0297851 381.8491821 496.9148559 C 377.4932251 505.4283447 378.9413452 513.5003662 379.4631958 515.8923339 C 381.3342285 517.4326781000001 388.6003113 523.0435180000001 399.3810425 522.8723144 C 409.7319946 522.7079467000001 416.62860109999997 517.3197021000001 418.5443115 515.7123413 C 418.0613708 515.3153076000001 417.083313 514.3938599 416.7138366 512.9120483 C 416.616455 512.5214843 416.5646362 512.1126709 416.5646362 511.69091790000004 L 416.5646362 503.2905883 C 416.5646362 500.4570312 418.8616943 498.159912 421.6952514 498.159912 L 430.095642 498.159912 C 430.8140258 498.159912 431.4965819 498.3098754 432.1173095 498.57647690000005 L 445.7822875 490.68701160000006 C 444.61175529999997 488.5904540000001 443.9387206 486.17846670000006 443.9387206 483.60675040000007 L 443.9387206 467.7849120000001 C 443.9387206 459.7474364000001 450.4544066 453.23175040000007 458.4918822 453.23175040000007 L 474.3137206 453.23175040000007 C 482.3511962 453.23175040000007 488.8668822 459.7474364000001 488.8668822 467.7849120000001 L 488.8668822 483.60675040000007 C 488.8668822 486.68585200000007 487.90460190000005 489.53692620000004 486.27288810000005 491.88861080000004 L 498.48114010000006 501.21948240000006 C 499.35455320000005 500.8344726000001 500.3182373000001 500.61694330000006 501.33404540000004 500.61694330000006 L 508.2824097 500.61694330000006 C 509.319336 500.61694330000006 510.30120850000003 500.84503170000005 511.18884280000003 501.2453002000001 L 525.4086914000001 479.4542846000001 C 524.9449463000001 478.4193725000001 524.6812134 477.2753906000001 524.6812134 476.0678710000001 L 524.6812134 462.9802245000001 C 524.6812134 461.46923820000006 525.0914917 460.0568236000001 525.7971802000001 458.8365477000001 L 515.1871338000001 444.8763426000001 C 514.4345093000001 445.1487425000001 513.6262207000001 445.3049315000001 512.7796021 445.3049315000001 L 505.83123780000005 445.3049315000001 C 501.91821290000007 445.3049315000001 498.74609380000004 442.13281240000015 498.74609380000004 438.2198485000001 L 498.74609380000004 431.27142320000013 C 498.74609380000004 427.3584593000001 501.9182129 424.18634020000013 505.83123780000005 424.18634020000013 L 512.7796021 424.18634020000013 C 516.692566 424.18634020000013 519.8646851000001 427.3584593000001 519.8646851000001 431.27142320000013 L 519.8646851000001 438.2198485000001 C 519.8646851000001 439.35241690000015 519.5921631000001 440.4190062000001 519.1196289000001 441.3685301000001 L 529.7381592 455.3397825000001 C 530.7339478 454.9168699000001 531.8290405 454.6823728000001 532.979065 454.6823728000001 L 546.0667725 454.6823728000001 C 550.6495362 454.6823728000001 554.3646240999999 458.3974607000001 554.3646240999999 462.9802244000001 L 554.3646240999999 476.0678709000001 C 554.3646240999999 480.6506956000001 550.6495362 484.36578350000013 546.0667725 484.36578350000013 L 532.979065 484.36578350000013 C 531.5789185 484.36578350000013 530.2617188 484.0156248000001 529.1047973999999 483.4032591000001 L 514.8960572 505.1772459000001 C 515.196106 505.96252420000013 515.3675538 506.8114012000001 515.3675538 507.7020872000001 L 515.3675538 514.6504515000001 C 515.3675538 514.8583983000001 515.354065 515.0630492000001 515.3364869 515.2664793000001 C 519.1289674 517.3311766000002 527.6185913999999 521.2904051000002 539.0406495 521.0850828000001 C 549.7376098999999 520.8928221000001 557.6583253 517.1441038000002 561.412964 515.0542600000001 C 561.2089235 514.5431516000001 561.0164186 513.8942869000001 560.9392091 513.1301877000001 C 560.9158325999999 512.8988034000001 560.9038087 512.6640012 560.9038087 512.4263913000001 L 560.9038087 501.7653195000001 C 560.9038087 497.8522946000001 564.0759278 494.6801755000001 567.9888917000001 494.6801755000001 L 578.6500245000001 494.6801755000001 C 579.7415162000001 494.6801755000001 580.7712403 494.9342649000001 581.6946412000001 495.3751218000001 L 592.1256104000001 488.8494870000001 C 592.0458375000002 488.4901120000001 591.9967042000002 488.1195065000001 591.9967042000002 487.7360837000001 L 591.9967042000002 479.3357541000001 C 591.9967042000002 476.5021359000001 594.2937623000001 474.2050778000001 597.1273194000001 474.2050778000001 L 605.5276490000001 474.2050778000001 C 608.3612061000001 474.2050778000001 610.6582642000001 476.5021359000001 610.6582642000001 479.3357541000001 L 610.6582642000001 487.7360837000001 C 610.6582642000001 490.5696408000001 608.3612061000001 492.86669890000013 605.5276490000001 492.86669890000013 L 597.1273194000001 492.86669890000013 C 596.6951905000002 492.86669890000013 596.2824097000001 492.79730190000015 595.8814698000001 492.69671600000015 L 585.2930299000001 499.32080050000013 C 585.5739747000001 500.0838010000001 585.7351075 500.90478490000015 585.7351075 501.76531950000015 L 585.7351075 512.4263913000001 C 585.7351075 513.3145139000001 585.5645142000001 514.1609494 585.2661134 514.9443356 C 589.895569 517.2548825 599.3185426 521.1896969000001 611.8065797 521.0850827 C 624.0493776000001 520.9824826 633.2561647 517.0476681 637.8491212 514.7021481 C 642.5162354 494.2663574 636.2408447 473.6755676 621.508728 461.8510742 z" stroke-linecap="round" />
</g>
		<g transform="matrix(0.7959717512834101 0 0 0.7959717512834102 -47.527419206535285 54.62580248102921)"  >
<path style="stroke: none; stroke-width: 1; stroke-dasharray: none; stroke-linecap: butt; stroke-dashoffset: 0; stroke-linejoin: miter; stroke-miterlimit: 4; fill: rgb(52,68,100); fill-rule: nonzero; opacity: 1;"  paint-order="stroke"  transform=" translate(-449.3782474825988, -579.0559082499999)" d="M 435.686554 550.4589844 C 447.8554993 554.5232543999999 456.1784974 565.8568726 456.3877259 578.6054687999999 C 456.60110480000003 591.6069335999999 448.33142100000003 603.3872071 435.9587708 607.6528321 C 450.6121216 606.4461670999999 462.05310060000005 594.826233 463.00570680000004 581.0972901 C 464.0602112 565.8999023 452.0114441 551.7399902 435.686554 550.4589844 z" stroke-linecap="round" />
</g>
		<g transform="matrix(0.7959717512834101 0 0 0.7959717512834102 66.751295414622 54.62580248102921)"  >
<path style="stroke: none; stroke-width: 1; stroke-dasharray: none; stroke-linecap: butt; stroke-dashoffset: 0; stroke-linejoin: miter; stroke-miterlimit: 4; fill: rgb(52,68,100); fill-rule: nonzero; opacity: 1;"  paint-order="stroke"  transform=" translate(-592.9495669884687, -579.0559082499999)" d="M 579.2578735 550.4589844 C 591.4268188 554.5232543999999 599.7498168999999 565.8568726 599.9590453999999 578.6054687999999 C 600.1724242999999 591.6069335999999 591.9027709999999 603.3872071 579.5300902999999 607.6528321 C 594.1834715999998 606.4461670999999 605.6244506999999 594.826233 606.5770262999998 581.0972901 C 607.6315308 565.8999023 595.5827637 551.7399902 579.2578735 550.4589844 z" stroke-linecap="round" />
</g>
</g>
</g>
<g transform="matrix(1.9211538461538462 0 0 1.9211538461538462 805.3876635262494 349.99177183149845)" id="text-logo"  >
<g style=""  paint-order="stroke"   >
		<g transform="matrix(1 0 0 1 0 0)" id="text-logo-path-0"  >
<path style="stroke: none; stroke-width: 0; stroke-dasharray: none; stroke-linecap: butt; stroke-dashoffset: 0; stroke-linejoin: miter; stroke-miterlimit: 4; fill: rgb(44,68,100); fill-rule: nonzero; opacity: 1;"  paint-order="stroke"  transform=" translate(-166.825, 19.389999999999997)" d="M 20.77 -21.71 L 38.68 -21.71 L 38.68 -13.3 Q 37.18 -6.39 32.1 -2.84 Q 27.02 0.7 20.77 0.7 L 20.77 0.7 Q 12.93 0.7 7.4 -5.17 Q 1.88 -11.04 1.88 -19.36 L 1.88 -19.36 Q 1.88 -27.82 7.29 -33.65 Q 12.69 -39.48 20.77 -39.48 L 20.77 -39.48 Q 30.22 -39.48 35.72 -32.85 L 35.72 -32.85 L 29.94 -26.51 Q 26.84 -31.49 21.29 -31.49 L 21.29 -31.49 Q 17.2 -31.49 14.31 -27.94 Q 11.42 -24.39 11.42 -19.36 L 11.42 -19.36 Q 11.42 -14.43 14.31 -10.93 Q 17.2 -7.43 21.29 -7.43 L 21.29 -7.43 Q 24.68 -7.43 27.19 -9.47 Q 29.7 -11.52 29.7 -14.9 L 29.7 -14.9 L 20.77 -14.9 L 20.77 -21.71 Z M 47.14 -19.41 L 47.14 -19.41 Q 47.14 -27.82 52.88 -33.65 Q 58.61 -39.48 66.69 -39.48 L 66.69 -39.48 Q 74.82 -39.48 80.51 -33.68 Q 86.2 -27.87 86.2 -19.41 L 86.2 -19.41 Q 86.2 -10.9 80.61 -5.1 Q 75.01 0.7 66.69 0.7 L 66.69 0.7 Q 58.19 0.7 52.66 -5.05 Q 47.14 -10.81 47.14 -19.41 Z M 56.68 -19.41 L 56.68 -19.41 Q 56.68 -16.36 57.62 -13.84 Q 58.56 -11.33 60.91 -9.59 Q 63.26 -7.85 66.69 -7.85 L 66.69 -7.85 Q 71.63 -7.85 74.14 -11.23 Q 76.66 -14.62 76.66 -19.41 L 76.66 -19.41 Q 76.66 -24.16 74.1 -27.57 Q 71.53 -30.97 66.69 -30.97 L 66.69 -30.97 Q 61.9 -30.97 59.29 -27.57 Q 56.68 -24.16 56.68 -19.41 Z M 94.66 -19.41 L 94.66 -19.41 Q 94.66 -27.82 100.39 -33.65 Q 106.13 -39.48 114.21 -39.48 L 114.21 -39.48 Q 122.34 -39.48 128.03 -33.68 Q 133.72 -27.87 133.72 -19.41 L 133.72 -19.41 Q 133.72 -10.9 128.12 -5.1 Q 122.53 0.7 114.21 0.7 L 114.21 0.7 Q 105.7 0.7 100.18 -5.05 Q 94.66 -10.81 94.66 -19.41 Z M 104.2 -19.41 L 104.2 -19.41 Q 104.2 -16.36 105.14 -13.84 Q 106.08 -11.33 108.43 -9.59 Q 110.78 -7.85 114.21 -7.85 L 114.21 -7.85 Q 119.15 -7.85 121.66 -11.23 Q 124.17 -14.62 124.17 -19.41 L 124.17 -19.41 Q 124.17 -24.16 121.61 -27.57 Q 119.05 -30.97 114.21 -30.97 L 114.21 -30.97 Q 109.42 -30.97 106.81 -27.57 Q 104.2 -24.16 104.2 -19.41 Z M 142.17 0 L 142.17 -38.77 L 153.41 -38.77 Q 161.49 -38.77 167.23 -33.25 Q 172.96 -27.73 172.96 -19.41 L 172.96 -19.41 Q 172.96 -11.04 167.25 -5.52 Q 161.54 0 153.41 0 L 153.41 0 L 142.17 0 Z M 151.01 -30.88 L 151.01 -7.9 L 152.37 -7.9 Q 157.21 -7.9 160.29 -11.16 Q 163.37 -14.43 163.42 -19.36 L 163.42 -19.36 Q 163.42 -24.3 160.34 -27.59 Q 157.26 -30.88 152.37 -30.88 L 152.37 -30.88 L 151.01 -30.88 Z M 202.99 -7.99 L 202.99 -7.99 Q 205.01 -7.99 206.92 -8.6 Q 208.82 -9.21 209.71 -9.78 L 209.71 -9.78 L 210.61 -10.39 L 214.37 -2.87 Q 214.18 -2.73 213.85 -2.49 Q 213.52 -2.26 212.32 -1.62 Q 211.12 -0.99 209.76 -0.52 Q 208.4 -0.05 206.19 0.33 Q 203.98 0.7 201.63 0.7 L 201.63 0.7 Q 196.22 0.7 191.38 -1.95 Q 186.54 -4.61 183.58 -9.26 Q 180.62 -13.91 180.62 -19.32 L 180.62 -19.32 Q 180.62 -23.41 182.36 -27.17 Q 184.1 -30.93 186.99 -33.6 Q 189.88 -36.28 193.73 -37.88 Q 197.59 -39.48 201.63 -39.48 L 201.63 -39.48 Q 205.39 -39.48 208.56 -38.59 Q 211.73 -37.69 213.05 -36.8 L 213.05 -36.8 L 214.37 -35.91 L 210.61 -28.39 Q 210.28 -28.67 209.62 -29.07 Q 208.96 -29.47 206.99 -30.13 Q 205.01 -30.79 202.99 -30.79 L 202.99 -30.79 Q 199.8 -30.79 197.26 -29.75 Q 194.72 -28.72 193.24 -27.02 Q 191.76 -25.33 190.98 -23.38 Q 190.21 -21.43 190.21 -19.41 L 190.21 -19.41 Q 190.21 -14.99 193.52 -11.49 Q 196.84 -7.99 202.99 -7.99 Z M 222.83 -19.41 L 222.83 -19.41 Q 222.83 -27.82 228.56 -33.65 Q 234.29 -39.48 242.38 -39.48 L 242.38 -39.48 Q 250.51 -39.48 256.2 -33.68 Q 261.88 -27.87 261.88 -19.41 L 261.88 -19.41 Q 261.88 -10.9 256.29 -5.1 Q 250.7 0.7 242.38 0.7 L 242.38 0.7 Q 233.87 0.7 228.35 -5.05 Q 222.83 -10.81 222.83 -19.41 Z M 232.37 -19.41 L 232.37 -19.41 Q 232.37 -16.36 233.31 -13.84 Q 234.25 -11.33 236.6 -9.59 Q 238.95 -7.85 242.38 -7.85 L 242.38 -7.85 Q 247.31 -7.85 249.83 -11.23 Q 252.34 -14.62 252.34 -19.41 L 252.34 -19.41 Q 252.34 -24.16 249.78 -27.57 Q 247.22 -30.97 242.38 -30.97 L 242.38 -30.97 Q 237.58 -30.97 234.98 -27.57 Q 232.37 -24.16 232.37 -19.41 Z M 270.34 0 L 270.34 -38.77 L 281.58 -38.77 Q 289.66 -38.77 295.39 -33.25 Q 301.13 -27.73 301.13 -19.41 L 301.13 -19.41 Q 301.13 -11.04 295.42 -5.52 Q 289.71 0 281.58 0 L 281.58 0 L 270.34 0 Z M 279.18 -30.88 L 279.18 -7.9 L 280.54 -7.9 Q 285.38 -7.9 288.46 -11.16 Q 291.54 -14.43 291.59 -19.36 L 291.59 -19.36 Q 291.59 -24.3 288.51 -27.59 Q 285.43 -30.88 280.54 -30.88 L 280.54 -30.88 L 279.18 -30.88 Z M 309.59 -38.77 L 331.77 -38.77 L 331.77 -31.02 L 318.42 -31.02 L 318.42 -23.31 L 331.21 -23.31 L 331.21 -15.56 L 318.42 -15.56 L 318.42 -7.75 L 331.77 -7.75 L 331.77 0 L 309.59 0 L 309.59 -38.77 Z" stroke-linecap="round" />
</g>
</g>
</g>
<g transform="matrix(1.9211538461538462 0 0 1.9211538461538462 709.8334849133644 443.9558675238061)" id="tagline-bd080760-3cba-4f3a-a2a6-794bcf2d7b99-logo"  >
<g style=""  paint-order="stroke"   >
		<g transform="matrix(1 0 0 1 0 0)" id="tagline-bd080760-3cba-4f3a-a2a6-794bcf2d7b99-logo-path-0"  >
<path style="stroke: none; stroke-width: 0; stroke-dasharray: none; stroke-linecap: butt; stroke-dashoffset: 0; stroke-linejoin: miter; stroke-miterlimit: 4; fill: rgb(0,116,86); fill-rule: nonzero; opacity: 1;"  paint-order="stroke"  transform=" translate(-117.13499999999999, 15.675)" d="M 14.48 -31.92 L 14.48 -31.92 Q 17.02 -31.92 19.46 -31.18 Q 21.89 -30.44 23.07 -29.72 L 23.07 -29.72 L 24.21 -28.96 L 21.32 -23.26 Q 20.98 -23.48 20.37 -23.84 Q 19.76 -24.21 18.09 -24.81 Q 16.42 -25.42 14.97 -25.42 L 14.97 -25.42 Q 13.19 -25.42 12.22 -24.66 Q 11.25 -23.9 11.25 -22.61 L 11.25 -22.61 Q 11.25 -21.96 11.7 -21.41 Q 12.16 -20.86 13.26 -20.23 Q 14.36 -19.61 15.2 -19.23 Q 16.04 -18.85 17.78 -18.09 L 17.78 -18.09 Q 20.82 -16.8 22.97 -14.57 Q 25.12 -12.35 25.12 -9.54 L 25.12 -9.54 Q 25.12 -6.84 24.15 -4.83 Q 23.18 -2.81 21.49 -1.67 Q 19.8 -0.53 17.75 0.02 Q 15.69 0.57 13.3 0.57 L 13.3 0.57 Q 11.25 0.57 9.27 0.15 Q 7.3 -0.27 5.97 -0.89 Q 4.64 -1.52 3.57 -2.13 Q 2.51 -2.74 2.01 -3.15 L 2.01 -3.15 L 1.52 -3.57 L 5.09 -9.58 Q 5.55 -9.2 6.35 -8.61 Q 7.14 -8.02 9.18 -7.03 Q 11.21 -6.04 12.77 -6.04 L 12.77 -6.04 Q 17.29 -6.04 17.29 -9.12 L 17.29 -9.12 Q 17.29 -9.77 16.97 -10.32 Q 16.64 -10.87 15.83 -11.42 Q 15.01 -11.97 14.38 -12.29 Q 13.76 -12.62 12.33 -13.28 Q 10.91 -13.95 10.22 -14.29 L 10.22 -14.29 Q 7.37 -15.69 5.81 -17.8 Q 4.26 -19.91 4.26 -22.34 L 4.26 -22.34 Q 4.26 -26.56 7.37 -29.24 Q 10.49 -31.92 14.48 -31.92 Z M 31.96 -15.69 L 31.96 -15.69 Q 31.96 -22.5 36.59 -27.21 Q 41.23 -31.92 47.77 -31.92 L 47.77 -31.92 Q 54.34 -31.92 58.94 -27.23 Q 63.54 -22.53 63.54 -15.69 L 63.54 -15.69 Q 63.54 -8.82 59.01 -4.12 Q 54.49 0.57 47.77 0.57 L 47.77 0.57 Q 40.89 0.57 36.42 -4.08 Q 31.96 -8.74 31.96 -15.69 Z M 39.67 -15.69 L 39.67 -15.69 Q 39.67 -13.22 40.43 -11.19 Q 41.19 -9.16 43.09 -7.75 Q 44.99 -6.35 47.77 -6.35 L 47.77 -6.35 Q 51.76 -6.35 53.79 -9.08 Q 55.82 -11.82 55.82 -15.69 L 55.82 -15.69 Q 55.82 -19.53 53.75 -22.29 Q 51.68 -25.04 47.77 -25.04 L 47.77 -25.04 Q 43.89 -25.04 41.78 -22.29 Q 39.67 -19.53 39.67 -15.69 Z M 70.38 -31.35 L 77.52 -31.35 L 77.52 -6.27 L 88.31 -6.27 L 88.31 0 L 70.38 0 L 70.38 -31.35 Z M 112.48 -31.35 L 119.62 -31.35 L 119.62 -11.13 Q 119.62 -5.36 116.51 -2.39 Q 113.39 0.57 107.39 0.57 Q 101.38 0.57 98.27 -2.39 Q 95.15 -5.36 95.15 -11.13 L 95.15 -11.13 L 95.15 -31.35 L 102.3 -31.35 L 102.3 -13.22 Q 102.3 -9.42 103.49 -7.94 Q 104.69 -6.46 107.39 -6.46 Q 110.09 -6.46 111.28 -7.94 Q 112.48 -9.42 112.48 -13.22 L 112.48 -13.22 L 112.48 -31.35 Z M 132.09 -25.08 L 124.64 -25.08 L 124.64 -31.35 L 146.68 -31.35 L 146.68 -25.08 L 139.23 -25.08 L 139.23 0 L 132.09 0 L 132.09 -25.08 Z M 153.52 -31.35 L 160.66 -31.35 L 160.66 0 L 153.52 0 L 153.52 -31.35 Z M 167.5 -15.69 L 167.5 -15.69 Q 167.5 -22.5 172.14 -27.21 Q 176.78 -31.92 183.31 -31.92 L 183.31 -31.92 Q 189.89 -31.92 194.48 -27.23 Q 199.08 -22.53 199.08 -15.69 L 199.08 -15.69 Q 199.08 -8.82 194.56 -4.12 Q 190.04 0.57 183.31 0.57 L 183.31 0.57 Q 176.43 0.57 171.97 -4.08 Q 167.5 -8.74 167.5 -15.69 Z M 175.22 -15.69 L 175.22 -15.69 Q 175.22 -13.22 175.98 -11.19 Q 176.74 -9.16 178.64 -7.75 Q 180.54 -6.35 183.31 -6.35 L 183.31 -6.35 Q 187.3 -6.35 189.34 -9.08 Q 191.37 -11.82 191.37 -15.69 L 191.37 -15.69 Q 191.37 -19.53 189.3 -22.29 Q 187.23 -25.04 183.31 -25.04 L 183.31 -25.04 Q 179.44 -25.04 177.33 -22.29 Q 175.22 -19.53 175.22 -15.69 Z M 213.14 -19.46 L 213.07 -19.46 L 213.07 0 L 205.92 0 L 205.92 -31.35 L 213.07 -31.35 L 225.53 -11.89 L 225.61 -11.89 L 225.61 -31.35 L 232.75 -31.35 L 232.75 0 L 225.61 0 L 213.14 -19.46 Z" stroke-linecap="round" />
</g>
</g>
</g>
</svg>